<svg width="10px" height="10px" viewBox="0 0 10 10" version="1.1" xmlns="http://www.w3.org/2000/svg" xmlns:xlink="http://www.w3.org/1999/xlink">
                    <!-- Generator: Sketch 64 (93537) - https://sketch.com -->
                    <title>25BEE37C-D082-4BEF-B958-15E5B9A7AFB6</title>
                    <desc>Created with Sketch.</desc>
                    <g id="页面-1" stroke="none" stroke-width="1" fill="none" fill-rule="evenodd">
                        <g id="确认订单-有资料-添加收货地址" transform="translate(-853.000000, -229.000000)" fill="#C10D0C">
                            <g id="订单/地址/个人中心-向右" transform="translate(853.000000, 229.000000)">
                                <path d="M7.09076112,9.98749756 L2.01292717,5.14254576 C1.9958796,5.05397072 1.99550331,4.9468523 2.01292717,4.85754859 L7.09076112,0.0125967901 C7.12995252,-0.0036897635 7.24037828,-0.00470049532 7.38945723,0.0125967901 L7.98684946,0.58259112 C8.00386663,0.731441012 8.00467812,0.838802629 7.98684946,0.867588285 L3.80510386,4.85754859 C3.74511958,4.9457911 3.74392748,5.0535197 3.80510386,5.14254576 L7.98684946,9.13250607 C8.00348602,9.16050817 8.00525862,9.26767705 7.98684946,9.41750323 L7.38945723,9.98749756 C7.24177028,10.0038186 7.13032882,10.0045128 7.09076112,9.98749756 Z" transform="translate(5.000000, 5.000000) scale(-1, 1) translate(-5.000000, -5.000000) "></path>
                            </g>
                        </g>
                    </g>
                </svg>