<?xml version="1.0" standalone="no"?><!DOCTYPE svg PUBLIC "-//W3C//DTD SVG 1.1//EN" "http://www.w3.org/Graphics/SVG/1.1/DTD/svg11.dtd"><svg t="1604746572627" class="icon" viewBox="0 0 1024 1024" version="1.1" xmlns="http://www.w3.org/2000/svg" p-id="3316" xmlns:xlink="http://www.w3.org/1999/xlink" width="200" height="200"><defs><style type="text/css"></style></defs><path d="M235.3 140.6h551.8c38.8 0 73.7 23.5 88.4 59.4l70.3 171.9c13.9 33.9 7.1 72.7-17.3 99.9L588.2 851.6c-37.3 41.6-102.1 42.5-140.5 1.9L88 473.8C61.3 445.6 54.3 404 70.3 368.7l78-172c15.5-34.2 49.5-56.1 87-56.1z" fill="#FAB001" p-id="3317"></path><path d="M861 348.7l-70.3-171.9c-5.9-14.3-15-26.5-26.3-36.2H235.3c-37.5 0-71.5 21.9-87 56.1l-78 172c-16 35.4-9.1 76.9 17.7 105.1l359.7 379.7c1.5 1.6 3.1 3 4.7 4.5 19-4.1 36.9-14 50.9-29.6l340.4-379.9c24.4-27.2 31.2-66 17.3-99.8z" fill="#F9E48A" p-id="3318"></path><path d="M807.9 219H302.1c-37.5 0-71.5 21.9-87 56.1l-78 172c-11.5 25.5-11 54.1 0.1 78.6l310.5 327.8c1.5 1.6 3.1 3 4.7 4.5 19-4.1 36.9-14 50.9-29.6l340.4-379.9c24.4-27.3 31.1-66.1 17.3-99.9L807.9 219z" fill="#FECE0A" p-id="3319"></path><path d="M669.6 438.9H336.8c-2.9 0-5.2-2.3-5.2-5.2v-89.3c0-2.9 2.3-5.2 5.2-5.2h332.7c2.9 0 5.2 2.3 5.2 5.2v89.3c0.1 2.9-2.2 5.2-5.1 5.2z" fill="#FFFFFF" p-id="3320"></path></svg>