<?xml version="1.0" encoding="UTF-8"?>
<svg width="16px" height="16px" viewBox="0 0 20 20" version="1.1" xmlns="http://www.w3.org/2000/svg" xmlns:xlink="http://www.w3.org/1999/xlink">
    <!-- Generator: Sketch 64 (93537) - https://sketch.com -->
    <title>F516581C-4EF2-4BD4-9D9F-F6A854826DC2</title>
    <desc>Created with Sketch.</desc>
    <g id="页面-1" stroke="none" stroke-width="1" fill="none" fill-rule="evenodd">
        <g id="课程详情-目录-录播课" transform="translate(-110.000000, -217.000000)">
            <g id="播放" transform="translate(110.000000, 217.000000)">
                <g>
                    <path d="M10.0000116,1 C7.52500608,1 5.27563992,2.01357655 3.64460824,3.64460824 C2.01357655,5.27563992 1,7.52500608 1,10.0000116 C1,12.4750154 2.01357718,14.724382 3.64460953,16.3554144 C5.27564109,17.9864459 7.52500669,19.0000233 10.0000116,19.0000233 C12.4750148,19.0000233 14.7243808,17.9864453 16.3554131,16.3554131 C17.9864453,14.7243808 19.0000233,12.4750148 19.0000233,10.0000116 C19.0000233,7.52500669 17.9864459,5.27564109 16.3554144,3.64460953 C14.724382,2.01357718 12.4750154,1 10.0000116,1 Z" id="形状" stroke="#C0E5FF" stroke-width="2" fill-rule="nonzero"></path>
                    <path d="M14.1250164,10.6250124 L8.00000931,14.1250164 C7.50000873,14.3750167 6.875008,14.0000163 6.875008,13.5000157 L6.875008,6.50000756 C6.875008,5.87500684 7.50000873,5.5000064 8.00000931,5.87500684 L14.1250164,9.37501091 C14.625017,9.6250112 14.625017,10.3750121 14.1250164,10.6250124 Z" id="路径" fill="#21A4FF" fill-rule="nonzero"></path>
                </g>
            </g>
        </g>
    </g>
</svg>