<?xml version="1.0" encoding="UTF-8"?>
<svg width="26px" height="26px" viewBox="0 0 26 26" version="1.1" xmlns="http://www.w3.org/2000/svg" xmlns:xlink="http://www.w3.org/1999/xlink">
    <!-- Generator: Sketch 64 (93537) - https://sketch.com -->
    <title>360E4844-FC22-43B4-AE0A-5491DD86443B</title>
    <desc>Created with Sketch.</desc>
    <g id="页面-1" stroke="none" stroke-width="1" fill="none" fill-rule="evenodd">
        <g id="作业详情-去完成" transform="translate(-66.000000, -640.000000)">
            <g id="Group-3备份" transform="translate(30.000000, 615.000000)">
                <g id="添加附件" transform="translate(36.000000, 25.000000)">
                    <g id="添加图片备份" transform="translate(1.000000, 2.000000)">
                        <g id="添加图片" stroke-width="1" fill-rule="evenodd" transform="translate(15.000000, 9.705882)" fill="#FF9600">
                            <path d="M5.5913151,0.967556273 L5.5913151,8.56620942 C5.5913151,9.09725323 5.1723693,9.53376569 4.6567437,9.53376569 L4.5493217,9.53376569 C4.03638165,9.53376569 3.6147503,9.10003357 3.6147503,8.56620942 L3.6147503,0.967556273 C3.6147503,0.436512456 4.0336961,0 4.5493217,0 L4.6567437,0 C5.1723693,0 5.5913151,0.436512456 5.5913151,0.967556273 L5.5913151,0.967556273 Z" id="路径" fill-rule="nonzero"></path>
                            <path d="M0.9345714,3.74511006 L8.27417955,3.74511006 C8.7871196,3.74511006 9.20875095,4.17884218 9.20875095,4.71266633 L9.20875095,4.82387969 C9.20875095,5.35492351 8.78980515,5.79143597 8.27417955,5.79143597 L0.9345714,5.79143597 C0.42163135,5.79143597 -7.04991621e-14,5.35770384 -7.04991621e-14,4.82387969 L-7.04991621e-14,4.71266633 C-7.04991621e-14,4.17884218 0.4189458,3.74511006 0.9345714,3.74511006 L0.9345714,3.74511006 Z" id="路径" fill-rule="nonzero"></path>
                        </g>
                        <path d="M13.1583312,14.9545712 L10.6545511,17.6373842 C8.76201324,19.665248 5.65006297,19.752392 3.65440872,17.8334093 C1.76288855,16.01456 1.65371124,12.9525918 3.41055438,10.9943121 C3.44967982,10.9507006 3.48957912,10.9078402 3.53023188,10.8657526 L10.6167459,3.52912626 C11.7671495,2.33812021 13.6323222,2.33812021 14.7827258,3.52912626 C15.909321,4.69548362 15.909321,6.58652253 14.7827258,7.75287988 C14.7665445,7.76954419 14.7665445,7.76954419 14.7501943,7.78603085 L8.57683701,13.9781452 C8.1363263,14.4199944 7.43783321,14.424283 6.99229148,13.9878742 C6.60989079,13.6133121 6.59318492,12.9887314 6.95497787,12.5928342 C6.96663917,12.5800737 6.97862751,12.5676377 6.99093007,12.5555398 L12.00221,7.62759639 C12.3776195,7.2584298 12.3928828,6.64409051 12.0363014,6.25543119 C11.6797201,5.86677187 11.0863242,5.85096989 10.7109146,6.22013648 L5.69963471,11.1480799 C5.66313176,11.1839758 5.62756113,11.2208744 5.59296085,11.2587363 C4.51948419,12.4334037 4.56905222,14.2865983 5.70367414,15.3979624 C6.87839831,16.5486067 8.72005901,16.537299 9.88151827,15.3723108 L16.0548755,9.18019644 C16.0818526,9.15299423 16.0818526,9.15299423 16.108551,9.12549893 C17.9673792,7.20106501 17.9673792,4.08094114 16.108551,2.15650722 C14.2259144,0.207424603 11.1735573,0.207424603 9.29092073,2.15650722 L2.20440667,9.49313354 C2.14744684,9.55210372 2.09154273,9.61215683 2.03672288,9.67326223 C-0.424843394,12.4170674 -0.271871751,16.7072839 2.37839461,19.255729 C5.1222409,21.8941587 9.40089449,21.7743435 12.002965,18.9862119 L14.5067451,16.3033989 C14.8665158,15.9179028 14.8563149,15.3034511 14.4839607,14.9309826 C14.1116065,14.5585141 13.518102,14.5690751 13.1583312,14.9545712 Z" id="路径-11" fill="#5197FC" fill-rule="nonzero"></path>
                    </g>
                </g>
            </g>
        </g>
    </g>
</svg>